REM DIRINDEX 1\2,1\3\5,1\3\6,1\4\7,1\4\8
REM DIRNAME folder01,folder02,folder03,folder04,folder05,folder06,folder07,folder08
TITLE ""
FILE "EG_E3_07.mp3" MP3
  TRACK 01 AUDIO
    TITLE "0:"
    INDEX 01 00:00:00
  TRACK 02 AUDIO
    TITLE "5:cjc139_1255"
    INDEX 01 00:00:17
  TRACK 03 AUDIO
    TITLE "6:cjc139_1256"
    INDEX 01 00:03:00
  TRACK 04 AUDIO
    TITLE "5:cjc139_1257"
    INDEX 01 00:05:61
  TRACK 05 AUDIO
    TITLE "6:cjc139_1258"
    INDEX 01 00:08:32
  TRACK 06 AUDIO
    TITLE "5:cjc139_1259"
    INDEX 01 00:11:15
  TRACK 07 AUDIO
    TITLE "6:cjc139_1260"
    INDEX 01 00:13:47
  TRACK 08 AUDIO
    TITLE "5:cjc139_1261"
    INDEX 01 00:16:30
  TRACK 09 AUDIO
    TITLE "6:cjc139_1262"
    INDEX 01 00:19:03
  TRACK 10 AUDIO
    TITLE "5:cjc139_1263"
    INDEX 01 00:21:62
  TRACK 11 AUDIO
    TITLE "6:cjc139_1264"
    INDEX 01 00:24:41
  TRACK 12 AUDIO
    TITLE "5:cjc139_1265"
    INDEX 01 00:27:24
  TRACK 13 AUDIO
    TITLE "6:cjc139_1266"
    INDEX 01 00:29:33
  TRACK 14 AUDIO
    TITLE "5:cjc139_1267"
    INDEX 01 00:32:17
  TRACK 15 AUDIO
    TITLE "6:cjc139_1268"
    INDEX 01 00:34:14
  TRACK 16 AUDIO
    TITLE "5:cjc139_1269"
    INDEX 01 00:36:74
  TRACK 17 AUDIO
    TITLE "6:cjc139_1270"
    INDEX 01 00:40:24
  TRACK 18 AUDIO
    TITLE "5:cjc139_1271"
    INDEX 01 00:43:07
  TRACK 19 AUDIO
    TITLE "6:cjc139_1272"
    INDEX 01 00:45:37
  TRACK 20 AUDIO
    TITLE "5:cjc139_1273"
    INDEX 01 00:48:22
  TRACK 21 AUDIO
    TITLE "6:cjc139_1274"
    INDEX 01 00:51:22
  TRACK 22 AUDIO
    TITLE "5:cjc139_1275"
    INDEX 01 00:54:07
  TRACK 23 AUDIO
    TITLE "6:cjc139_1276"
    INDEX 01 00:55:67
  TRACK 24 AUDIO
    TITLE "5:cjc139_1277"
    INDEX 01 00:58:56
  TRACK 25 AUDIO
    TITLE "6:cjc139_1278"
    INDEX 01 01:01:54
  TRACK 26 AUDIO
    TITLE "5:cjc139_1279"
    INDEX 01 01:04:37
  TRACK 27 AUDIO
    TITLE "6:cjc139_1280"
    INDEX 01 01:06:71
  TRACK 28 AUDIO
    TITLE "5:cjc139_1281"
    INDEX 01 01:09:56
  TRACK 29 AUDIO
    TITLE "6:cjc139_1282"
    INDEX 01 01:11:56
  TRACK 30 AUDIO
    TITLE "5:cjc139_1283"
    INDEX 01 01:14:43
  TRACK 31 AUDIO
    TITLE "6:cjc139_1284"
    INDEX 01 01:16:38
  TRACK 32 AUDIO
    TITLE "5:cjc139_1285"
    INDEX 01 01:19:25
  TRACK 33 AUDIO
    TITLE "6:cjc139_1286"
    INDEX 01 01:22:07
  TRACK 34 AUDIO
    TITLE "5:cjc139_1287"
    INDEX 01 01:24:69
  TRACK 35 AUDIO
    TITLE "6:cjc139_1288"
    INDEX 01 01:27:42
  TRACK 36 AUDIO
    TITLE "5:cjc139_1289"
    INDEX 01 01:30:28
  TRACK 37 AUDIO
    TITLE "6:cjc139_1290"
    INDEX 01 01:33:03
  TRACK 38 AUDIO
    TITLE "5:cjc139_1291"
    INDEX 01 01:35:65
  TRACK 39 AUDIO
    TITLE "6:cjc139_1292"
    INDEX 01 01:38:20
  TRACK 40 AUDIO
    TITLE "5:cjc139_1293"
    INDEX 01 01:41:05
  TRACK 41 AUDIO
    TITLE "6:cjc139_1294"
    INDEX 01 01:43:37
  TRACK 42 AUDIO
    TITLE "5:cjc139_1295"
    INDEX 01 01:46:21
  TRACK 43 AUDIO
    TITLE "6:cjc139_1296"
    INDEX 01 01:48:73
  TRACK 44 AUDIO
    TITLE "5:cjc139_1297"
    INDEX 01 01:51:60
  TRACK 45 AUDIO
    TITLE "6:cjc139_1298"
    INDEX 01 01:54:15
  TRACK 46 AUDIO
    TITLE "5:cjc139_1299"
    INDEX 01 01:57:00
  TRACK 47 AUDIO
    TITLE "6:cjc139_1300"
    INDEX 01 01:59:65
  TRACK 48 AUDIO
    TITLE "5:cjc139_1301"
    INDEX 01 02:02:50
  TRACK 49 AUDIO
    TITLE "6:cjc139_1302"
    INDEX 01 02:04:45
  TRACK 50 AUDIO
    TITLE "5:cjc139_1303"
    INDEX 01 02:07:31
  TRACK 51 AUDIO
    TITLE "6:cjc139_1304"
    INDEX 01 02:09:50
  TRACK 52 AUDIO
    TITLE "5:cjc139_1305"
    INDEX 01 02:12:35
  TRACK 53 AUDIO
    TITLE "6:cjc139_1306"
    INDEX 01 02:14:35
  TRACK 54 AUDIO
    TITLE "5:cjc139_1307"
    INDEX 01 02:17:20
  TRACK 55 AUDIO
    TITLE "6:cjc139_1308"
    INDEX 01 02:19:70
  TRACK 56 AUDIO
    TITLE "5:cjc139_1309"
    INDEX 01 02:22:53
  TRACK 57 AUDIO
    TITLE "6:cjc139_1310"
    INDEX 01 02:24:67
  TRACK 58 AUDIO
    TITLE "5:cjc139_1311"
    INDEX 01 02:27:52
  TRACK 59 AUDIO
    TITLE "6:cjc139_1312"
    INDEX 01 02:30:34
  TRACK 60 AUDIO
    TITLE "5:cjc139_1313"
    INDEX 01 02:33:17
  TRACK 61 AUDIO
    TITLE "6:cjc139_1314"
    INDEX 01 02:36:23
  TRACK 62 AUDIO
    TITLE "5:cjc139_1315"
    INDEX 01 02:39:08
  TRACK 63 AUDIO
    TITLE "6:cjc139_1316"
    INDEX 01 02:41:15
  TRACK 64 AUDIO
    TITLE "5:cjc139_1317"
    INDEX 01 02:43:74
  TRACK 65 AUDIO
    TITLE "6:cjc139_1318"
    INDEX 01 02:45:61
  TRACK 66 AUDIO
    TITLE "5:cjc139_1319"
    INDEX 01 02:48:48
  TRACK 67 AUDIO
    TITLE "6:cjc139_1320"
    INDEX 01 02:51:13
  TRACK 68 AUDIO
    TITLE "5:cjc139_1321"
    INDEX 01 02:54:00
  TRACK 69 AUDIO
    TITLE "6:cjc139_1322"
    INDEX 01 02:56:20
  TRACK 70 AUDIO
    TITLE "5:cjc139_1323"
    INDEX 01 02:59:07
  TRACK 71 AUDIO
    TITLE "6:cjc139_1324"
    INDEX 01 03:01:27
  TRACK 72 AUDIO
    TITLE "5:cjc139_1325"
    INDEX 01 03:04:12
  TRACK 73 AUDIO
    TITLE "6:cjc139_1326"
    INDEX 01 03:07:18
  TRACK 74 AUDIO
    TITLE "5:cjc139_1327"
    INDEX 01 03:10:03
  TRACK 75 AUDIO
    TITLE "6:cjc139_1328"
    INDEX 01 03:13:03
  TRACK 76 AUDIO
    TITLE "5:cjc139_1329"
    INDEX 01 03:15:64
  TRACK 77 AUDIO
    TITLE "6:cjc139_1330"
    INDEX 01 03:18:00
  TRACK 78 AUDIO
    TITLE "5:cjc139_1331"
    INDEX 01 03:20:60
  TRACK 79 AUDIO
    TITLE "6:cjc139_1332"
    INDEX 01 03:23:15
  TRACK 80 AUDIO
    TITLE "5:cjc139_1333"
    INDEX 01 03:26:00
  TRACK 81 AUDIO
    TITLE "6:cjc139_1334"
    INDEX 01 03:28:16
  TRACK 82 AUDIO
    TITLE "5:cjc139_1335"
    INDEX 01 03:31:01
  TRACK 83 AUDIO
    TITLE "6:cjc139_1336"
    INDEX 01 03:33:62
  TRACK 84 AUDIO
    TITLE "5:cjc139_1337"
    INDEX 01 03:36:47
  TRACK 85 AUDIO
    TITLE "6:cjc139_1338"
    INDEX 01 03:39:18
  TRACK 86 AUDIO
    TITLE "5:cjc139_1339"
    INDEX 01 03:42:03
  TRACK 87 AUDIO
    TITLE "6:cjc139_1340"
    INDEX 01 03:44:58
  TRACK 88 AUDIO
    TITLE "5:cjc139_1341"
    INDEX 01 03:47:43
  TRACK 89 AUDIO
    TITLE "6:cjc139_1342"
    INDEX 01 03:50:53
  TRACK 90 AUDIO
    TITLE "5:cjc139_1343"
    INDEX 01 03:53:38
  TRACK 91 AUDIO
    TITLE "6:cjc139_1344"
    INDEX 01 03:56:20
  TRACK 92 AUDIO
    TITLE "5:cjc139_1345"
    INDEX 01 03:59:03
  TRACK 93 AUDIO
    TITLE "6:cjc139_1346"
    INDEX 01 04:01:39
  TRACK 94 AUDIO
    TITLE "5:cjc139_1347"
    INDEX 01 04:04:26
  TRACK 95 AUDIO
    TITLE "6:cjc139_1348"
    INDEX 01 04:07:40
  TRACK 96 AUDIO
    TITLE "5:cjc139_1349"
    INDEX 01 04:10:26
  TRACK 97 AUDIO
    TITLE "6:cjc139_1350"
    INDEX 01 04:13:54
  TRACK 98 AUDIO
    TITLE "5:cjc139_1351"
    INDEX 01 04:16:37
  TRACK 99 AUDIO
    TITLE "6:cjc139_1352"
    INDEX 01 04:19:43
  TRACK 100 AUDIO
    TITLE "0:"
    INDEX 01 04:22:37
